<svg width="72" height="66" viewBox="0 0 72 66" fill="none" xmlns="http://www.w3.org/2000/svg">
<path d="M2 24.4995V54.4989C2 58.641 5.35779 61.9987 9.49984 61.9987H31.9993M2 24.4995V9.49984C2 5.35779 5.35779 2 9.49984 2H61.9987C66.1409 2 69.4985 5.35779 69.4985 9.49984V24.4995M2 24.4995H69.4985M69.4985 24.4995V35.7493" stroke="#003321" stroke-width="4" stroke-linecap="round" stroke-linejoin="round"/>
<path d="M55 64C62.1797 64 68 58.1797 68 51C68 43.8203 62.1797 38 55 38C47.8203 38 42 43.8203 42 51C42 58.1797 47.8203 64 55 64Z" stroke="#003321" stroke-width="3" stroke-linecap="round" stroke-linejoin="round"/>
<path d="M55 43.0566L55 51.0011L60.7778 53.89" stroke="#003321" stroke-width="3" stroke-linecap="round" stroke-linejoin="round"/>
<path d="M47.7499 16.9998C49.8209 16.9998 51.4998 15.3209 51.4998 13.2499C51.4998 11.1789 49.8209 9.5 47.7499 9.5C45.6789 9.5 44 11.1789 44 13.2499C44 15.3209 45.6789 16.9998 47.7499 16.9998Z" fill="#003321"/>
<path d="M58.9999 16.9998C61.0709 16.9998 62.7498 15.3209 62.7498 13.2499C62.7498 11.1789 61.0709 9.5 58.9999 9.5C56.9289 9.5 55.25 11.1789 55.25 13.2499C55.25 15.3209 56.9289 16.9998 58.9999 16.9998Z" fill="#003321"/>
</svg>
